<svg width="119" height="46" viewBox="0 0 119 46" fill="none" xmlns="http://www.w3.org/2000/svg">
<path d="M35.0572 30C34.7881 30 34.5911 29.9375 34.4662 29.8126C34.3413 29.6877 34.2788 29.4955 34.2788 29.2361V12.8335C34.2788 12.5645 34.3413 12.3723 34.4662 12.257C34.5911 12.1321 34.7881 12.0696 35.0572 12.0696H43.9935C44.1761 12.0696 44.3058 12.1273 44.3827 12.2426C44.4692 12.3579 44.5124 12.5549 44.5124 12.8335V13.2515C44.5124 13.511 44.4692 13.7032 44.3827 13.8281C44.3058 13.953 44.1761 14.0154 43.9935 14.0154H36.5417V19.8529H43.2296C43.4122 19.8529 43.5419 19.9154 43.6188 20.0403C43.7052 20.1652 43.7485 20.3622 43.7485 20.6312V21.0204C43.7485 21.2895 43.7052 21.4864 43.6188 21.6114C43.5419 21.7267 43.4122 21.7843 43.2296 21.7843H36.5417V28.0542H44.0223C44.2049 28.0542 44.3346 28.1166 44.4115 28.2416C44.498 28.3569 44.5412 28.549 44.5412 28.8181V29.2361C44.5412 29.4955 44.498 29.6877 44.4115 29.8126C44.3346 29.9375 44.2049 30 44.0223 30H35.0572ZM47.4239 30.0432C47.03 30.0432 46.7465 30.0096 46.5735 29.9423C46.4102 29.8751 46.3285 29.7646 46.3285 29.6108C46.3285 29.4955 46.3958 29.3418 46.5303 29.1496L50.6814 23.1392L46.833 17.4314C46.708 17.2393 46.6456 17.0903 46.6456 16.9846C46.6456 16.8309 46.7321 16.7204 46.905 16.6531C47.078 16.5859 47.3759 16.5522 47.7987 16.5522H48.0437C48.332 16.5522 48.5626 16.581 48.7355 16.6387C48.9085 16.6867 49.0478 16.7876 49.1535 16.9414L51.5894 20.588C51.7336 20.8186 51.9065 21.1213 52.1083 21.496C52.1467 21.4288 52.214 21.3135 52.3101 21.1501C52.4062 20.9868 52.5215 20.7994 52.656 20.588L55.1063 16.8981C55.26 16.6675 55.6444 16.5522 56.2594 16.5522H56.3603C56.7542 16.5522 57.0329 16.5859 57.1963 16.6531C57.3596 16.7204 57.4413 16.8309 57.4413 16.9846C57.4413 17.0999 57.374 17.2489 57.2395 17.4314L53.3767 23.0671L57.5134 29.1496C57.6575 29.361 57.7296 29.5147 57.7296 29.6108C57.7296 29.755 57.6383 29.8655 57.4557 29.9423C57.2731 30.0096 56.9704 30.0432 56.5477 30.0432H56.317C56.0192 30.0432 55.7837 30.0192 55.6108 29.9712C55.4474 29.9135 55.3177 29.8078 55.2216 29.6541L52.4975 25.5895C52.3437 25.3589 52.2236 25.1667 52.1371 25.0129C52.0506 24.8496 51.993 24.7439 51.9642 24.6958C51.9449 24.7343 51.8873 24.8352 51.7912 24.9985C51.7047 25.1523 51.5798 25.3492 51.4165 25.5895L48.6635 29.6829C48.5001 29.9231 48.1158 30.0432 47.5104 30.0432H47.4239ZM61.4771 35.333C60.7852 35.333 60.4393 35.1456 60.4393 34.7709V20.4871C60.4393 19.3725 60.3864 18.5701 60.2807 18.08C60.175 17.5804 60.1222 17.3065 60.1222 17.2585C60.1222 17.0471 60.2807 16.8981 60.5978 16.8117C60.9245 16.7156 61.232 16.6675 61.5203 16.6675C61.7605 16.6675 61.9383 16.7973 62.0536 17.0567C62.1689 17.3161 62.2506 17.5804 62.2986 17.8494C62.3563 18.1185 62.3947 18.2914 62.4139 18.3683C63.6343 17.0903 64.994 16.4513 66.493 16.4513C67.5211 16.4513 68.4099 16.7444 69.1595 17.3305C69.909 17.9167 70.4807 18.7287 70.8747 19.7664C71.2686 20.8042 71.4656 21.9861 71.4656 23.3121C71.4656 24.7535 71.2446 25.9882 70.8026 27.0164C70.3702 28.0446 69.76 28.8229 68.9721 29.3514C68.1841 29.8799 67.2761 30.1441 66.2479 30.1441C65.508 30.1441 64.8498 30.0336 64.2733 29.8126C63.7063 29.5916 63.1442 29.2697 62.5869 28.8469V34.7709C62.5869 35.1456 62.2506 35.333 61.578 35.333H61.4771ZM65.7579 28.256C66.9013 28.2271 67.7613 27.8092 68.3379 27.002C68.9144 26.1948 69.2027 25.0225 69.2027 23.4851C69.2027 21.8324 68.9288 20.5592 68.3811 19.6655C67.843 18.7623 67.0647 18.3107 66.0461 18.3107C65.4792 18.3107 64.8883 18.4644 64.2733 18.7719C63.6679 19.0794 63.1058 19.5166 62.5869 20.0835V27.1029C63.5286 27.8716 64.5856 28.256 65.7579 28.256ZM78.3408 30.1441C77.4856 30.1441 76.7217 29.8847 76.0491 29.3658C75.3765 28.8469 75.0402 27.9293 75.0402 26.6128V11.2913C75.0402 10.9165 75.3813 10.7292 76.0635 10.7292H76.1788C76.8514 10.7292 77.1878 10.9165 77.1878 11.2913V26.411C77.1878 27.1125 77.3127 27.6026 77.5625 27.8812C77.8123 28.1599 78.1487 28.2992 78.5715 28.2992C78.8886 28.2992 79.1384 28.28 79.321 28.2416C79.5035 28.2031 79.6236 28.1839 79.6813 28.1839C79.835 28.1839 79.96 28.3376 80.056 28.6451C80.1617 28.9526 80.2146 29.1976 80.2146 29.3802C80.2146 29.8895 79.59 30.1441 78.3408 30.1441ZM87.9258 30.1441C85.9944 30.1441 84.5194 29.5676 83.5009 28.4145C82.4919 27.2518 81.9874 25.5655 81.9874 23.3554C81.9874 21.1453 82.5015 19.4445 83.5297 18.253C84.5579 17.0519 86.0232 16.4513 87.9258 16.4513C89.8092 16.4513 91.2505 17.0471 92.2498 18.2386C93.2492 19.4205 93.7489 21.1261 93.7489 23.3554C93.7489 25.5751 93.254 27.2614 92.2643 28.4145C91.2841 29.5676 89.838 30.1441 87.9258 30.1441ZM87.8537 28.2992C89.1029 28.2992 90.0254 27.8956 90.6211 27.0885C91.2169 26.2717 91.5148 25.0129 91.5148 23.3121C91.5148 21.6017 91.2169 20.3382 90.6211 19.5214C90.0254 18.7046 89.1029 18.2963 87.8537 18.2963C86.6142 18.2963 85.7013 18.7046 85.1152 19.5214C84.529 20.3286 84.236 21.5921 84.236 23.3121C84.236 25.0225 84.5242 26.2813 85.1008 27.0885C85.6869 27.8956 86.6046 28.2992 87.8537 28.2992ZM98.5053 30.0432C98.1402 30.0432 97.8759 30 97.7126 29.9135C97.5492 29.8174 97.4675 29.6733 97.4675 29.4811V20.4871C97.4675 19.3725 97.4147 18.5701 97.309 18.08C97.2033 17.5804 97.1504 17.3065 97.1504 17.2585C97.1504 17.0471 97.309 16.8981 97.6261 16.8117C97.9528 16.7156 98.2603 16.6675 98.5485 16.6675C98.7792 16.6675 98.9521 16.7924 99.0674 17.0423C99.1827 17.2825 99.2836 17.6236 99.3701 18.0656L99.4422 18.3683C100.355 17.0903 101.345 16.4513 102.411 16.4513C102.902 16.4513 103.271 16.5426 103.521 16.7252C103.771 16.8981 103.896 17.1336 103.896 17.4314C103.896 17.7197 103.843 18.0272 103.737 18.3539C103.641 18.671 103.526 18.8296 103.392 18.8296C103.324 18.8296 103.204 18.8007 103.031 18.7431C102.877 18.6758 102.724 18.6278 102.57 18.5989C102.416 18.5605 102.219 18.5413 101.979 18.5413C101.585 18.5413 101.21 18.6566 100.855 18.8872C100.509 19.1178 100.216 19.3725 99.9755 19.6511C99.7353 19.9298 99.6151 20.0835 99.6151 20.1124V29.4811C99.6151 29.6733 99.5335 29.8174 99.3701 29.9135C99.2068 30 98.9521 30.0432 98.6062 30.0432H98.5053ZM112.227 30.1441C110.103 30.1441 108.523 29.5916 107.485 28.4866C106.457 27.3719 105.943 25.6712 105.943 23.3842C105.943 21.1165 106.447 19.3965 107.456 18.2242C108.465 17.0423 109.95 16.4513 111.91 16.4513C113.659 16.4513 114.975 17.0183 115.859 18.1521C116.753 19.286 117.2 20.9483 117.2 23.1392C117.2 23.2353 117.147 23.3698 117.041 23.5428C116.945 23.7061 116.825 23.8551 116.681 23.9896C116.546 24.1145 116.431 24.177 116.335 24.177H108.249C108.355 25.6087 108.72 26.6561 109.344 27.3191C109.979 27.9725 110.93 28.2992 112.198 28.2992C112.909 28.2992 113.519 28.2127 114.029 28.0398C114.548 27.8668 115.047 27.6554 115.528 27.4056C115.576 27.3864 115.648 27.3527 115.744 27.3047C115.84 27.2566 115.907 27.2326 115.946 27.2326C116.051 27.2326 116.172 27.3191 116.306 27.4921C116.45 27.6554 116.57 27.8428 116.666 28.0542C116.772 28.256 116.825 28.4049 116.825 28.501C116.825 28.7124 116.614 28.9478 116.191 29.2073C115.768 29.4667 115.201 29.6877 114.49 29.8703C113.788 30.0528 113.034 30.1441 112.227 30.1441ZM114.908 22.332C114.908 19.6415 113.885 18.2963 111.838 18.2963C109.637 18.2963 108.441 19.6415 108.249 22.332H114.908Z" fill="black"/>
<path d="M9.58521 30.2162C6.70251 30.2162 4.57412 29.4667 3.20003 27.9677C1.83556 26.4687 1.15332 24.1385 1.15332 20.9772C1.15332 14.8947 4.00719 11.8534 9.71493 11.8534C10.4932 11.8534 11.31 11.9303 12.1652 12.084C13.03 12.2378 13.7507 12.454 14.3272 12.7326C14.9037 13.0017 15.192 13.3044 15.192 13.6407C15.192 13.8809 15.0959 14.198 14.9037 14.592C14.7116 14.9763 14.4857 15.3175 14.2263 15.6153C13.9669 15.9132 13.7362 16.0622 13.5345 16.0622C13.4768 16.0622 13.3375 16.0141 13.1165 15.918C12.636 15.7258 12.1315 15.5673 11.6031 15.4424C11.0746 15.3079 10.4211 15.2406 9.64286 15.2406C8.13425 15.2406 7.0148 15.721 6.28452 16.6819C5.56384 17.6332 5.20351 19.0746 5.20351 21.006C5.20351 22.9374 5.56865 24.3932 6.29893 25.3733C7.02921 26.3534 8.12464 26.8434 9.58521 26.8434C10.3251 26.8434 10.9929 26.781 11.5886 26.6561V23.413H9.32576C9.05671 23.413 8.85973 23.3121 8.73481 23.1104C8.6195 22.9086 8.56185 22.5819 8.56185 22.1302V21.3087C8.56185 20.8667 8.6195 20.5448 8.73481 20.343C8.85973 20.1412 9.05671 20.0403 9.32576 20.0403H14.529C14.8941 20.0403 15.1584 20.122 15.3217 20.2853C15.4851 20.4391 15.5668 20.6937 15.5668 21.0492V28.1839C15.5668 28.9526 14.923 29.4859 13.6354 29.7838C12.3478 30.0721 10.9977 30.2162 9.58521 30.2162ZM24.5464 30.2162C22.5189 30.2162 20.9718 29.6204 19.9052 28.4289C18.8482 27.2374 18.3197 25.5222 18.3197 23.2833C18.3197 21.054 18.8482 19.3484 19.9052 18.1665C20.9718 16.9846 22.5189 16.3937 24.5464 16.3937C26.5739 16.3937 28.1113 16.9846 29.1587 18.1665C30.2157 19.3388 30.7442 21.0444 30.7442 23.2833C30.7442 25.5222 30.2157 27.2374 29.1587 28.4289C28.1113 29.6204 26.5739 30.2162 24.5464 30.2162ZM24.5464 27.2038C25.3535 27.2038 25.9445 26.8771 26.3192 26.2237C26.7036 25.5703 26.8958 24.5901 26.8958 23.2833C26.8958 21.9861 26.7036 21.0108 26.3192 20.3574C25.9445 19.704 25.3535 19.3773 24.5464 19.3773C22.9513 19.3773 22.1537 20.6793 22.1537 23.2833C22.1537 24.5805 22.3459 25.5606 22.7303 26.2237C23.1242 26.8771 23.7296 27.2038 24.5464 27.2038Z" fill="url(#paint0_linear_265_21)"/>
<defs>
<linearGradient id="paint0_linear_265_21" x1="0.000240326" y1="21" x2="32.0002" y2="21" gradientUnits="userSpaceOnUse">
<stop stop-color="#9E2896"/>
<stop offset="0.5" stop-color="#007BC0"/>
<stop offset="0.75" stop-color="#18837E"/>
<stop offset="1" stop-color="#00884A"/>
</linearGradient>
</defs>
</svg>
